<?xml version="1.0" encoding="UTF-8" standalone="no"?>
<!DOCTYPE svg PUBLIC "-//W3C//DTD SVG 1.1//EN" "http://www.w3.org/Graphics/SVG/1.1/DTD/svg11.dtd">
<svg width="100%" height="100%" viewBox="0 0 1478 455" version="1.1" xmlns="http://www.w3.org/2000/svg" xmlns:xlink="http://www.w3.org/1999/xlink" xml:space="preserve" xmlns:serif="http://www.serif.com/" style="fill-rule:evenodd;clip-rule:evenodd;stroke-linejoin:round;stroke-miterlimit:1.41421;">
    <g transform="matrix(1,0,0,1,-24.6818,-17.0953)">
        <g transform="matrix(47.6701,0,0,16.0849,0,0)">
            <g transform="matrix(0.0206768,0,0,0.0631549,-18.7533,-21.9525)">
                <path d="M1134.64,379.691C1141.26,379.691 1146.73,380.327 1151.05,381.599C1155.38,382.871 1158.69,384.397 1160.98,386.178C1163.27,387.959 1164.98,390.566 1166.13,394.001C1167.27,397.435 1167.91,400.361 1168.04,402.778C1168.16,405.195 1168.23,408.82 1168.23,413.653L1168.23,625.443C1168.23,631.295 1168.04,635.683 1167.65,638.609C1167.27,641.534 1166.06,644.905 1164.03,648.721C1161.99,652.537 1158.56,655.208 1153.73,656.735C1148.89,658.261 1142.4,659.024 1134.26,659.024C1127.65,659.024 1122.18,658.388 1117.86,657.116C1113.53,655.844 1110.22,654.318 1107.93,652.537C1105.64,650.756 1103.93,648.149 1102.78,644.714C1101.64,641.28 1101,638.354 1100.87,635.937C1100.75,633.521 1100.68,629.895 1100.68,625.062L1100.68,547.596L999.558,547.596L999.558,625.443C999.558,631.295 999.367,635.683 998.985,638.609C998.604,641.534 997.395,644.905 995.36,648.721C993.325,652.537 989.891,655.208 985.057,656.735C980.223,658.261 973.736,659.024 965.595,659.024C958.981,659.024 953.511,658.388 949.186,657.116C944.861,655.844 941.554,654.318 939.265,652.537C936.975,650.756 935.258,648.149 934.113,644.714C932.968,641.28 932.332,638.354 932.205,635.937C932.078,633.521 932.014,629.895 932.014,625.062L932.014,413.272C932.014,407.421 932.205,403.032 932.586,400.107C932.968,397.181 934.176,393.81 936.212,389.994C938.247,386.178 941.681,383.507 946.515,381.98C951.349,380.454 957.836,379.691 965.977,379.691C972.591,379.691 978.061,380.327 982.386,381.599C986.711,382.871 990.018,384.397 992.307,386.178C994.597,387.959 996.314,390.566 997.459,394.001C998.604,397.435 999.24,400.361 999.367,402.778C999.494,405.195 999.558,408.82 999.558,413.653L999.558,491.501L1100.68,491.501L1100.68,413.272C1100.68,407.421 1100.87,403.032 1101.26,400.107C1101.64,397.181 1102.85,393.81 1104.88,389.994C1106.92,386.178 1110.35,383.507 1115.18,381.98C1120.02,380.454 1126.51,379.691 1134.64,379.691Z" style="fill:rgb(255,50,123);fill-rule:nonzero;"/>
                <path d="M1362.46,458.301C1370.35,458.301 1376.71,459.064 1381.54,460.591C1386.38,462.117 1389.75,464.788 1391.65,468.604C1393.56,472.42 1394.71,475.791 1395.09,478.717C1395.47,481.642 1395.66,486.031 1395.66,491.882L1395.66,625.443C1395.66,631.295 1395.47,635.683 1395.09,638.609C1394.71,641.534 1393.56,644.842 1391.65,648.53C1389.75,652.219 1386.38,654.827 1381.54,656.353C1376.71,657.88 1370.22,658.643 1362.08,658.643C1350.63,658.643 1342.56,656.926 1337.85,653.491C1333.14,650.057 1330.41,645.032 1329.64,638.418C1320.23,651.901 1304.97,658.643 1283.85,658.643C1260.96,658.643 1240.1,648.594 1221.27,628.496C1202.44,608.398 1193.03,584.866 1193.03,557.9C1193.03,531.696 1202.51,508.609 1221.46,488.639C1240.41,468.668 1261.21,458.683 1283.85,458.683C1292.5,458.683 1300.39,460.209 1307.51,463.262C1314.63,466.315 1319.6,469.177 1322.39,471.848C1325.19,474.519 1327.48,477.127 1329.26,479.671C1330.03,472.548 1332.76,467.205 1337.47,463.643C1342.17,460.082 1350.51,458.301 1362.46,458.301ZM1294.16,591.862C1303.31,591.862 1311.01,588.428 1317.24,581.559C1323.48,574.69 1326.59,567.058 1326.59,558.663C1326.59,550.522 1323.6,542.89 1317.62,535.767C1311.65,528.643 1303.57,525.082 1293.39,525.082C1283.47,525.082 1275.39,528.643 1269.16,535.767C1262.93,542.89 1259.81,550.649 1259.81,559.044C1259.81,567.44 1263.12,575.008 1269.73,581.75C1276.35,588.491 1284.49,591.862 1294.16,591.862Z" style="fill:rgb(255,50,123);fill-rule:nonzero;"/>
                <path d="M1536.47,458.683C1559.12,458.683 1579.91,468.732 1598.87,488.829C1617.82,508.927 1627.3,531.951 1627.3,557.9C1627.3,585.121 1617.88,608.716 1599.06,628.687C1580.23,648.658 1559.37,658.643 1536.47,658.643C1516.12,658.643 1501.37,652.537 1492.21,640.326C1490.17,652.792 1479.23,659.024 1459.39,659.024C1451.5,659.024 1445.14,658.261 1440.31,656.735C1435.48,655.208 1432.11,652.537 1430.2,648.721C1428.29,644.905 1427.14,641.534 1426.76,638.609C1426.38,635.683 1426.19,631.295 1426.19,625.443L1426.19,397.626C1426.19,391.775 1426.38,387.386 1426.76,384.461C1427.14,381.535 1428.29,378.228 1430.2,374.539C1432.11,370.85 1435.48,368.243 1440.31,366.716C1445.14,365.19 1451.63,364.427 1459.77,364.427C1467.66,364.427 1474.02,365.19 1478.85,366.716C1483.68,368.243 1487.06,370.914 1488.96,374.73C1490.87,378.546 1492.02,381.917 1492.4,384.842C1492.78,387.768 1492.97,392.156 1492.97,398.008L1492.97,477.381C1503.15,464.916 1517.65,458.683 1536.47,458.683ZM1503.08,581.941C1509.32,588.809 1517.14,592.244 1526.55,592.244C1535.97,592.244 1543.98,588.809 1550.59,581.941C1557.21,575.072 1560.52,567.44 1560.52,559.044C1560.52,550.649 1557.46,542.953 1551.36,535.957C1545.25,528.961 1537.11,525.463 1526.93,525.463C1516.76,525.463 1508.68,529.025 1502.7,536.148C1496.72,543.271 1493.73,550.903 1493.73,559.044C1493.73,567.44 1496.85,575.072 1503.08,581.941Z" style="fill:rgb(255,50,123);fill-rule:nonzero;"/>
                <path d="M1845.95,533.095C1845.95,549.886 1842.08,562.034 1834.32,569.538C1826.56,577.043 1817.97,580.796 1808.56,580.796L1718.12,580.796C1718.12,587.919 1722.32,593.897 1730.71,598.731C1739.11,603.565 1748.14,605.982 1757.8,605.982C1764.67,605.982 1771.16,605.473 1777.27,604.455C1783.37,603.438 1787.82,602.42 1790.62,601.402L1794.82,599.876C1800.92,597.077 1806.01,595.678 1810.08,595.678C1818.22,595.678 1825.22,601.402 1831.07,612.85C1834.38,619.719 1836.03,625.571 1836.03,630.404C1836.03,653.046 1808.94,664.367 1754.75,664.367C1735.92,664.367 1719.2,661.123 1704.57,654.636C1689.94,648.149 1678.56,639.626 1670.42,629.069C1662.28,618.511 1656.23,607.381 1652.29,595.678C1648.35,583.976 1646.38,572.019 1646.38,559.808C1646.38,527.753 1656.74,502.122 1677.48,482.914C1698.21,463.707 1724.1,454.103 1755.13,454.103C1767.6,454.103 1779.05,455.821 1789.48,459.255C1799.91,462.689 1808.56,467.142 1815.43,472.611C1822.3,478.081 1828.08,484.377 1832.79,491.501C1837.5,498.624 1840.87,505.683 1842.9,512.68C1844.94,519.676 1845.95,526.481 1845.95,533.095ZM1765.44,546.07C1775.1,546.07 1779.94,541.999 1779.94,533.859C1779.94,528.007 1777.71,523.301 1773.26,519.739C1768.81,516.178 1762.38,514.397 1753.99,514.397C1745.85,514.397 1737.71,517.768 1729.57,524.509C1721.42,531.251 1717.35,538.438 1717.35,546.07L1765.44,546.07Z" style="fill:rgb(255,50,123);fill-rule:nonzero;"/>
                <path d="M2034.47,458.301C2042.35,458.301 2048.71,459.064 2053.55,460.591C2058.38,462.117 2061.75,464.788 2063.66,468.604C2065.57,472.42 2066.71,475.791 2067.09,478.717C2067.47,481.642 2067.67,486.031 2067.67,491.882L2067.67,625.443C2067.67,631.295 2067.47,635.683 2067.09,638.609C2066.71,641.534 2065.57,644.842 2063.66,648.53C2061.75,652.219 2058.38,654.827 2053.55,656.353C2048.71,657.88 2042.23,658.643 2034.09,658.643C2022.64,658.643 2014.56,656.926 2009.85,653.491C2005.15,650.057 2002.41,645.032 2001.65,638.418C1992.24,651.901 1976.97,658.643 1955.86,658.643C1932.96,658.643 1912.1,648.594 1893.27,628.496C1874.45,608.398 1865.03,584.866 1865.03,557.9C1865.03,531.696 1874.51,508.609 1893.46,488.639C1912.42,468.668 1933.21,458.683 1955.86,458.683C1964.51,458.683 1972.39,460.209 1979.52,463.262C1986.64,466.315 1991.6,469.177 1994.4,471.848C1997.2,474.519 1999.49,477.127 2001.27,479.671C2002.03,472.548 2004.77,467.205 2009.47,463.643C2014.18,460.082 2022.51,458.301 2034.47,458.301ZM1966.16,591.862C1975.32,591.862 1983.01,588.428 1989.25,581.559C1995.48,574.69 1998.6,567.058 1998.6,558.663C1998.6,550.522 1995.61,542.89 1989.63,535.767C1983.65,528.643 1975.57,525.082 1965.4,525.082C1955.48,525.082 1947.4,528.643 1941.16,535.767C1934.93,542.89 1931.82,550.649 1931.82,559.044C1931.82,567.44 1935.12,575.008 1941.74,581.75C1948.35,588.491 1956.49,591.862 1966.16,591.862Z" style="fill:rgb(255,50,123);fill-rule:nonzero;"/>
                <path d="M2214.97,525.845L2190.16,524.318L2190.16,576.98C2190.16,583.849 2191.24,588.809 2193.4,591.862C2195.57,594.915 2199.45,596.441 2205.04,596.441C2211.4,596.441 2216.17,596.632 2219.35,597.014C2222.53,597.396 2225.84,598.54 2229.28,600.448C2232.71,602.356 2235.06,605.346 2236.34,609.416C2237.61,613.486 2238.24,619.083 2238.24,626.207C2238.24,634.093 2237.42,640.453 2235.76,645.287C2234.11,650.12 2231.37,653.491 2227.56,655.399C2223.74,657.307 2220.37,658.452 2217.45,658.834C2214.52,659.215 2210.26,659.406 2204.66,659.406C2178.2,659.406 2158.11,653.428 2144.37,641.471C2130.63,629.514 2123.76,609.289 2123.76,580.796L2123.76,524.318C2118.93,525.082 2114.35,525.463 2110.02,525.463C2103.16,525.463 2097.88,523.301 2094.19,518.976C2090.5,514.651 2088.65,505.62 2088.65,491.882C2088.65,484.759 2089.29,478.844 2090.56,474.138C2091.83,469.431 2093.68,466.06 2096.1,464.025C2098.51,461.99 2100.87,460.654 2103.16,460.018C2105.45,459.382 2108.12,459.064 2111.17,459.064L2123.76,460.591L2123.76,421.286C2123.76,415.434 2123.95,411.109 2124.33,408.311C2124.72,405.513 2125.86,402.396 2127.77,398.962C2129.68,395.527 2133.05,393.11 2137.88,391.711C2142.72,390.312 2149.2,389.612 2157.34,389.612C2163.7,389.612 2168.98,390.248 2173.18,391.52C2177.38,392.792 2180.62,394.255 2182.91,395.909C2185.2,397.562 2186.92,400.107 2188.06,403.541C2189.21,406.975 2189.84,409.965 2189.97,412.509C2190.1,415.053 2190.16,418.614 2190.16,423.194L2190.16,460.591C2201.35,459.573 2209.75,459.064 2215.35,459.064C2221.2,459.064 2225.59,459.255 2228.51,459.637C2231.44,460.018 2234.74,461.163 2238.43,463.071C2242.12,464.979 2244.73,468.35 2246.26,473.184C2247.78,478.017 2248.55,484.504 2248.55,492.645C2248.55,500.532 2247.78,506.892 2246.26,511.726C2244.73,516.559 2242.06,519.93 2238.24,521.838C2234.43,523.746 2231.06,524.891 2228.13,525.272C2225.2,525.654 2220.82,525.845 2214.97,525.845Z" style="fill:rgb(255,50,123);fill-rule:nonzero;"/>
                <path d="M2343.57,662.84C2317.87,662.84 2293.7,655.717 2271.06,641.471C2266.23,638.418 2263.81,633.966 2263.81,628.115C2263.81,620.737 2268.64,610.306 2278.31,596.823C2281.11,592.498 2285.43,590.336 2291.29,590.336C2297.9,590.336 2305.66,593.007 2314.56,598.35C2327.03,605.473 2337.59,609.034 2346.24,609.034C2361.76,609.034 2369.51,605.982 2369.51,599.876C2369.51,597.332 2367.1,595.169 2362.26,593.389C2357.43,591.608 2351.32,590.209 2343.95,589.191C2336.57,588.173 2328.62,586.075 2320.1,582.895C2311.57,579.715 2303.62,575.835 2296.25,571.256C2288.87,566.676 2282.76,559.49 2277.93,549.695C2273.1,539.901 2270.68,528.262 2270.68,514.778C2270.68,474.583 2298.28,454.485 2353.49,454.485C2371.55,454.485 2390.12,458.81 2409.2,467.46C2418.11,471.53 2422.56,477.127 2422.56,484.25C2422.56,489.338 2419.89,496.207 2414.54,504.857C2408.69,514.015 2402.84,518.594 2396.99,518.594C2393.94,518.594 2389.61,517.322 2384.01,514.778C2373.08,509.69 2362.77,507.146 2353.11,507.146C2338.1,507.146 2330.59,509.945 2330.59,515.542C2330.59,519.612 2333.07,522.856 2338.03,525.272C2342.99,527.689 2349.23,529.343 2356.73,530.233C2364.24,531.124 2372.31,532.841 2380.96,535.385C2389.61,537.929 2397.69,541.045 2405.19,544.734C2412.7,548.423 2418.93,554.656 2423.89,563.433C2428.85,572.21 2431.33,582.958 2431.33,595.678C2431.33,609.416 2428.85,620.928 2423.89,630.213C2418.93,639.499 2411.94,646.368 2402.91,650.82C2393.87,655.272 2384.72,658.388 2375.43,660.169C2366.14,661.95 2355.52,662.84 2343.57,662.84Z" style="fill:rgb(255,50,123);fill-rule:nonzero;"/>
            </g>
        </g>
        <g transform="matrix(47.6701,0,0,16.0849,0,0)">
            <g transform="matrix(0.0211869,0,0,0.0647128,-18.9852,-14.8629)">
                <path d="M997.475,645.327L969.337,582.616C967.191,577.607 964.091,575.342 959.799,575.342C955.626,575.342 952.407,577.607 950.38,582.616L922.243,645.327C921.527,646.996 920.931,649.024 920.931,651.051C920.931,655.821 925.104,659.876 930.469,659.876C934.762,659.876 938.219,657.371 939.888,653.555L944.419,642.823L975.299,642.823L979.829,653.555C981.379,657.371 984.956,659.876 989.248,659.876C994.614,659.876 998.787,655.821 998.787,651.051C998.787,649.024 998.191,646.996 997.475,645.327ZM950.857,627.454L959.799,606.228L968.741,627.454L950.857,627.454Z" style="fill:rgb(39,40,56);fill-rule:nonzero;"/>
                <path d="M1057.82,574.268C1052.7,574.268 1048.41,578.561 1048.41,583.689L1048.41,605.027C1048.29,605.504 1048.29,605.98 1048.29,606.457L1048.29,605.385C1046.74,601.215 1040.89,596.687 1032.78,596.687C1019.9,596.687 1004.17,607.172 1004.17,628.401C1004.17,650.225 1019.66,660.233 1032.78,660.233C1041.49,660.233 1046.74,655.825 1048.53,652.727C1049.48,657.017 1053.41,660.114 1057.82,660.114C1062.95,660.114 1067.6,655.944 1067.6,650.702L1067.6,583.689C1067.6,578.561 1063.07,574.268 1057.82,574.268ZM1036.36,644.03C1029.56,644.03 1023.23,638.661 1023.23,628.401C1023.23,618.26 1029.56,612.891 1036.36,612.891C1041.61,612.891 1049.13,616.709 1049.13,628.401C1049.13,640.332 1041.61,644.03 1036.36,644.03Z" style="fill:rgb(39,40,56);fill-rule:nonzero;"/>
                <path d="M1133.19,574.268C1128.07,574.268 1123.78,578.561 1123.78,583.689L1123.78,605.027C1123.66,605.504 1123.66,605.98 1123.66,606.457L1123.66,605.385C1122.11,601.215 1116.26,596.687 1108.15,596.687C1095.26,596.687 1079.54,607.172 1079.54,628.401C1079.54,650.225 1095.03,660.233 1108.15,660.233C1116.86,660.233 1122.11,655.825 1123.9,652.727C1124.85,657.017 1128.78,660.114 1133.19,660.114C1138.32,660.114 1142.96,655.944 1142.96,650.702L1142.96,583.689C1142.96,578.561 1138.43,574.268 1133.19,574.268ZM1111.73,644.03C1104.92,644.03 1098.6,638.661 1098.6,628.401C1098.6,618.26 1104.92,612.891 1111.73,612.891C1116.98,612.891 1124.49,616.709 1124.49,628.401C1124.49,640.332 1116.98,644.03 1111.73,644.03Z" style="fill:rgb(39,40,56);fill-rule:nonzero;"/>
                <path d="M1254.7,644.611L1240.52,627.681C1250.17,623.034 1256.01,613.979 1256.01,603.597C1256.01,588.567 1243.98,575.938 1225.37,575.938L1203.55,575.938C1197.23,575.938 1192.7,580.465 1192.7,586.78L1192.7,650.574C1192.7,655.94 1197.11,660.353 1202.6,660.353C1207.96,660.353 1212.25,655.94 1212.25,650.574L1212.25,630.898L1221.2,630.898L1241,656.179C1242.55,658.325 1245.05,659.756 1248.15,659.756C1253.27,659.756 1257.09,655.583 1257.09,650.574C1257.09,648.189 1255.89,646.281 1254.7,644.611ZM1212.25,592.618L1224.3,592.618C1231.1,592.618 1237.07,594.647 1237.07,603.597C1237.07,612.427 1231.1,614.217 1224.3,614.217L1212.25,614.217L1212.25,592.618Z" style="fill:rgb(39,40,56);fill-rule:nonzero;"/>
                <path d="M1307.42,596.807C1295.25,596.807 1288.45,605.981 1288.09,610.389L1288.09,583.808C1288.09,578.561 1283.68,574.268 1278.56,574.268C1273.43,574.268 1269.03,578.561 1269.03,583.808L1269.03,650.574C1269.03,655.821 1273.43,659.995 1278.56,659.995C1283.68,659.995 1288.09,655.821 1288.09,650.574L1288.09,624.1C1288.09,622.789 1290.24,612.891 1300.02,612.891C1306.35,612.891 1310.64,617.064 1310.64,626.366L1310.64,650.574C1310.64,655.821 1314.93,659.995 1320.06,659.995C1325.3,659.995 1329.59,655.821 1329.59,650.574L1329.59,626.366C1329.59,605.385 1319.82,596.807 1307.42,596.807Z" style="fill:rgb(39,40,56);fill-rule:nonzero;"/>
                <path d="M1391.96,597.045C1388.38,597.045 1384.93,599.191 1382.9,603.841L1368.47,635.795L1354.52,603.841C1352.5,599.191 1349.04,597.045 1345.46,597.045C1340.46,597.045 1336.76,600.979 1336.76,605.51C1336.76,607.299 1337.36,608.849 1337.83,610.041L1359.29,656.183L1353.21,669.656C1352.74,670.849 1352.14,672.399 1352.14,674.187C1352.14,678.718 1355.6,682.653 1360.6,682.653C1364.18,682.653 1367.64,680.506 1369.66,675.856L1399.59,610.041C1400.19,608.849 1400.78,607.299 1400.78,605.51C1400.78,600.979 1397.09,597.045 1391.96,597.045Z" style="fill:rgb(39,40,56);fill-rule:nonzero;"/>
                <path d="M1443.59,643.314C1442.28,643.195 1440.26,643.672 1439.06,643.672C1436.8,643.672 1435.84,641.644 1435.84,638.423L1435.84,612.056L1442.76,612.056C1447.41,612.056 1450.27,608.959 1450.27,604.789C1450.27,600.5 1447.41,597.403 1442.76,597.403L1435.84,597.403L1435.84,590.486C1435.84,585.239 1431.43,580.946 1426.31,580.946C1421.19,580.946 1416.78,585.239 1416.78,590.486L1416.78,597.403L1414.39,597.403C1409.74,597.403 1406.76,600.5 1406.76,604.789C1406.76,608.959 1409.74,612.056 1414.39,612.056L1416.78,612.056L1416.78,637.468C1416.78,657.135 1426.19,659.995 1435.37,659.995C1445.03,659.995 1450.27,656.421 1450.27,650.225C1450.27,645.817 1447.77,643.314 1443.59,643.314Z" style="fill:rgb(39,40,56);fill-rule:nonzero;"/>
                <path d="M1499.42,596.807C1487.24,596.807 1480.44,605.981 1480.09,610.389L1480.09,583.808C1480.09,578.561 1475.68,574.268 1470.55,574.268C1465.43,574.268 1461.02,578.561 1461.02,583.808L1461.02,650.574C1461.02,655.821 1465.43,659.995 1470.55,659.995C1475.68,659.995 1480.09,655.821 1480.09,650.574L1480.09,624.1C1480.09,622.789 1482.23,612.891 1492.02,612.891C1498.34,612.891 1502.64,617.064 1502.64,626.366L1502.64,650.574C1502.64,655.821 1506.93,659.995 1512.05,659.995C1517.29,659.995 1521.58,655.821 1521.58,650.574L1521.58,626.366C1521.58,605.385 1511.81,596.807 1499.42,596.807Z" style="fill:rgb(39,40,56);fill-rule:nonzero;"/>
                <path d="M1615.81,596.807C1604.83,596.807 1597.43,603.955 1594.21,611.223C1590.63,601.215 1583.13,596.807 1574.31,596.807C1562.13,596.807 1555.33,605.981 1554.97,610.389L1554.97,606.695C1554.97,601.334 1550.57,597.045 1545.44,597.045C1540.32,597.045 1535.91,601.334 1535.91,606.695L1535.91,650.574C1535.91,655.821 1540.32,659.995 1545.44,659.995C1550.57,659.995 1554.97,655.821 1554.97,650.574L1554.97,624.1C1554.97,622.789 1557.12,612.891 1566.91,612.891C1573.23,612.891 1577.53,617.064 1577.53,626.366L1577.53,650.574C1577.53,655.821 1581.82,659.995 1586.94,659.995C1592.18,659.995 1596.47,655.821 1596.47,650.574L1596.47,626.366L1596.47,624.1C1596.47,622.789 1598.74,612.891 1608.53,612.891C1614.73,612.891 1619.03,617.064 1619.03,626.366L1619.03,650.574C1619.03,655.821 1623.44,659.995 1628.56,659.995C1633.68,659.995 1638.09,655.821 1638.09,650.574L1638.09,626.366C1638.09,605.385 1628.2,596.807 1615.81,596.807Z" style="fill:rgb(39,40,56);fill-rule:nonzero;"/>
                <path d="M1741.96,575.938L1692.96,575.938C1688.31,575.938 1684.26,579.75 1684.26,584.636C1684.26,589.401 1688.31,593.214 1692.96,593.214L1707.63,593.214L1707.63,650.097C1707.63,655.702 1712.16,660.353 1717.52,660.353C1722.64,660.353 1727.17,655.702 1727.17,650.097L1727.17,593.214L1741.96,593.214C1746.61,593.214 1750.55,589.401 1750.55,584.636C1750.55,579.75 1746.61,575.938 1741.96,575.938Z" style="fill:rgb(39,40,56);fill-rule:nonzero;"/>
                <path d="M1778.1,596.687C1764.38,596.687 1745.79,607.41 1745.79,628.639C1745.79,649.987 1764.38,660.233 1778.1,660.233C1791.7,660.233 1810.29,649.987 1810.29,628.639C1810.29,607.41 1791.7,596.687 1778.1,596.687ZM1778.1,613.129C1785.5,613.129 1791.58,619.333 1791.58,628.639C1791.58,637.588 1785.5,643.792 1778.1,643.792C1770.58,643.792 1764.62,637.588 1764.62,628.639C1764.62,619.333 1770.58,613.129 1778.1,613.129Z" style="fill:rgb(39,40,56);fill-rule:nonzero;"/>
                <path d="M1914.28,575.461C1911.42,575.461 1908.91,576.773 1907.24,579.038L1889.24,606.466L1871.24,579.038C1869.45,576.773 1867.07,575.461 1864.09,575.461C1859.2,575.461 1855.14,579.515 1855.14,584.405C1855.14,586.313 1855.62,587.863 1856.58,589.294L1879.59,623.042L1879.59,651.066C1879.59,656.313 1884.12,660.368 1889.24,660.368C1894.25,660.368 1898.89,656.313 1898.89,651.066L1898.89,623.042L1921.91,589.294C1922.86,587.863 1923.34,586.313 1923.34,584.405C1923.34,579.515 1919.29,575.461 1914.28,575.461Z" style="fill:rgb(39,40,56);fill-rule:nonzero;"/>
                <path d="M1954.35,596.687C1940.63,596.687 1922.04,607.41 1922.04,628.639C1922.04,649.987 1940.63,660.233 1954.35,660.233C1967.96,660.233 1986.54,649.987 1986.54,628.639C1986.54,607.41 1967.96,596.687 1954.35,596.687ZM1954.35,613.129C1961.75,613.129 1967.84,619.333 1967.84,628.639C1967.84,637.588 1961.75,643.792 1954.35,643.792C1946.84,643.792 1940.87,637.588 1940.87,628.639C1940.87,619.333 1946.84,613.129 1954.35,613.129Z" style="fill:rgb(39,40,56);fill-rule:nonzero;"/>
                <path d="M2020.65,660.114C2032.82,660.114 2039.63,650.94 2039.98,646.532L2039.98,650.225C2039.98,655.587 2044.39,659.876 2049.52,659.876C2054.64,659.876 2059.05,655.587 2059.05,650.225L2059.05,606.347C2059.05,601.1 2054.64,596.926 2049.52,596.926C2044.39,596.926 2039.98,601.1 2039.98,606.347L2039.98,632.821C2039.98,634.132 2037.84,644.03 2028.05,644.03C2021.73,644.03 2017.43,639.856 2017.43,630.555L2017.43,606.347C2017.43,601.1 2013.14,596.926 2008.02,596.926C2002.77,596.926 1998.48,601.1 1998.48,606.347L1998.48,630.555C1998.48,651.536 2008.26,660.114 2020.65,660.114Z" style="fill:rgb(39,40,56);fill-rule:nonzero;"/>
                <path d="M2109.49,596.807C2099.95,596.807 2092.8,605.981 2092.44,610.39L2092.44,606.696C2092.44,601.334 2088.03,597.045 2082.91,597.045C2077.78,597.045 2073.37,601.334 2073.37,606.696L2073.37,650.574C2073.37,655.702 2077.78,659.995 2082.91,659.995C2088.03,659.995 2092.44,655.702 2092.44,650.574L2092.44,624.1C2092.68,620.642 2097.69,614.322 2106.03,614.322C2114.14,614.322 2118.08,610.747 2118.08,605.386C2118.08,600.858 2115.22,596.807 2109.49,596.807Z" style="fill:rgb(39,40,56);fill-rule:nonzero;"/>
                <path d="M2186.77,642.122L2186.77,585.597C2186.77,580.112 2182.48,575.58 2177.11,575.58C2171.63,575.58 2167.22,580.112 2167.22,585.597L2167.22,648.556C2167.22,654.871 2171.75,659.399 2178.07,659.399L2214.08,659.399C2218.73,659.399 2222.66,655.586 2222.66,650.82C2222.66,645.935 2218.73,642.122 2214.08,642.122L2186.77,642.122Z" style="fill:rgb(39,40,56);fill-rule:nonzero;"/>
                <path d="M2243.66,591.783C2248.78,591.783 2253.31,587.494 2253.31,582.489C2253.31,577.365 2248.78,573.076 2243.66,573.076C2238.53,573.076 2234.01,577.365 2234.01,582.489C2234.01,587.494 2238.53,591.783 2243.66,591.783ZM2243.66,597.045C2238.53,597.045 2234.12,601.338 2234.12,606.705L2234.12,650.47C2234.12,655.836 2238.53,660.129 2243.66,660.129C2248.78,660.129 2253.19,655.836 2253.19,650.47L2253.19,606.705C2253.19,601.338 2248.78,597.045 2243.66,597.045Z" style="fill:rgb(39,40,56);fill-rule:nonzero;"/>
                <path d="M2298.62,588.683C2299.46,588.683 2299.58,588.683 2301.13,589.041C2303.75,589.758 2305.66,590.116 2306.73,590.116C2310.79,590.116 2313.77,587.491 2313.77,583.441C2313.77,580.224 2312.1,577.841 2308.64,575.577C2305.3,573.79 2300.89,572.718 2295.64,572.718C2288.37,572.718 2273.6,575.935 2273.6,593.222L2273.6,597.403L2270.5,597.403C2265.85,597.403 2262.86,600.5 2262.86,604.789C2262.86,608.959 2265.85,612.056 2270.5,612.056L2273.6,612.056L2273.6,650.693C2273.6,655.94 2278.01,660.114 2283.13,660.114C2288.25,660.114 2292.66,655.94 2292.66,650.693L2292.66,612.056L2300.05,612.056C2304.71,612.056 2307.57,608.959 2307.57,604.789C2307.57,600.5 2304.71,597.403 2300.05,597.403L2292.66,597.403L2292.66,594.297C2292.66,594.775 2292.18,588.683 2298.62,588.683Z" style="fill:rgb(39,40,56);fill-rule:nonzero;"/>
                <path d="M2342.03,596.687C2328.44,596.687 2310.21,606.934 2310.21,628.64C2310.21,650.345 2327.25,659.995 2343.46,659.995C2350.97,659.995 2356.46,658.089 2360.51,655.587C2364.09,652.847 2365.05,650.107 2365.05,647.843C2365.05,644.268 2362.66,641.521 2358.73,641.521C2356.34,641.521 2354.31,642.596 2351.81,643.432C2348.47,644.268 2347.88,644.746 2344.3,644.746C2336.55,644.746 2331.66,641.162 2329.99,635.072L2360.4,635.429C2368.03,635.429 2372.08,632.928 2372.08,625.424C2372.08,607.529 2355.63,596.687 2342.03,596.687ZM2342.03,613.129C2347.52,613.129 2352.17,615.637 2353.36,622.446L2329.99,622.446C2331.06,615.637 2336.43,613.129 2342.03,613.129Z" style="fill:rgb(39,40,56);fill-rule:nonzero;"/>
            </g>
        </g>
    </g>
</svg>
